<svg xmlns="http://www.w3.org/2000/svg" viewBox="0 0 160 40" width="160" height="40">
  <!-- Brand Emblem Container -->
  <rect x="0" y="2" width="36" height="36" rx="10" fill="#18181B" stroke="#27272A" stroke-width="1.2"/>
  
  <!-- Precision Focal Center Dot -->
  <circle cx="15" cy="20" r="3.2" fill="#10B981" />
  
  <!-- Continuous Greek Alpha (α) with bold lines -->
  <path 
    d="M 26.5 11.5 C 24 16 21.5 20 18.5 20 C 14.8 20 11.8 17.1 11.8 13.5 C 11.8 9.9 14.8 7 18.5 7 C 22.2 7 25.2 9.9 25.2 13.5 C 25.2 17.1 22.2 20 18.5 20 C 14.8 20 11.8 22.9 11.8 26.5 C 11.8 30.1 14.8 33 18.5 33 C 21.5 33 24 30 26.5 28.5" 
    stroke="#10B981" 
    stroke-width="3.4" 
    stroke-linecap="round" 
    stroke-linejoin="round" 
    fill="none"
  />

  <!-- Wordmark Text -->
  <text x="48" y="27" font-family="system-ui, -apple-system, 'Segoe UI', Roboto, sans-serif" font-size="20" font-weight="800" fill="#FAFAFA" letter-spacing="-0.5">Alfa</text>
  <text x="89" y="27" font-family="system-ui, -apple-system, 'Segoe UI', Roboto, sans-serif" font-size="20" font-weight="700" fill="#10B981" letter-spacing="-0.5">Focus</text>
</svg>
